M48
; DRILL file KiCad 10.0.4 date 2026-07-16T13:19:50
; FORMAT={-:-/ absolute / metric / decimal}
; #@! TF.CreationDate,2026-07-16T13:19:50+02:00
; #@! TF.GenerationSoftware,Kicad,Pcbnew,10.0.4
; #@! TF.FileFunction,Plated,1,2,PTH
FMAT,2
METRIC
; #@! TA.AperFunction,Plated,PTH,ComponentDrill
T1C0.700
; #@! TA.AperFunction,Plated,PTH,ComponentDrill
T2C0.750
; #@! TA.AperFunction,Plated,PTH,ComponentDrill
T3C0.800
; #@! TA.AperFunction,Plated,PTH,ComponentDrill
T4C0.900
; #@! TA.AperFunction,Plated,PTH,ComponentDrill
T5C1.000
; #@! TA.AperFunction,Plated,PTH,ComponentDrill
T6C1.100
%
G90
G05
T1
X225.75Y-92.43
X225.75Y-94.97
T2
X173.0Y-85.0
X174.27Y-85.0
X175.54Y-85.0
T3
X172.5Y-93.0
X172.5Y-95.0
X174.5Y-108.63
X174.5Y-116.25
X186.38Y-81.5
X194.0Y-81.5
X205.5Y-120.0
X207.0Y-81.1
X207.0Y-106.5
X209.54Y-81.1
X209.54Y-106.5
X210.5Y-120.0
X212.08Y-81.1
X212.08Y-106.5
X214.62Y-81.1
X214.62Y-106.5
X217.16Y-81.1
X217.16Y-106.5
X219.7Y-81.1
X219.7Y-106.5
X221.275Y-90.305
X221.275Y-97.925
X222.24Y-81.1
X222.24Y-106.5
X224.78Y-81.1
X224.78Y-106.5
X227.32Y-81.1
X227.32Y-106.5
X229.86Y-81.1
X229.86Y-106.5
X232.4Y-81.1
X232.4Y-106.5
X234.94Y-81.1
X234.94Y-106.5
X235.0Y-115.0
X237.48Y-81.1
X237.48Y-106.5
X240.0Y-115.0
X240.02Y-81.1
X240.02Y-106.5
X242.56Y-81.1
X242.56Y-106.5
T4
X247.5Y-120.23
X247.5Y-121.5
X247.5Y-122.77
X247.5Y-124.04
T5
X137.0Y-87.25
X137.0Y-94.75
X156.0Y-87.25
X159.2Y-94.75
X162.4Y-87.25
X192.5Y-95.7
X192.5Y-103.3
T6
X179.5Y-106.92
X179.5Y-117.08
X186.95Y-107.96
X186.95Y-110.5
X186.95Y-113.04
X187.34Y-87.5
X197.5Y-87.5
M30
